<svg xmlns="http://www.w3.org/2000/svg" width="256" height="256"><path fill="#1976D2" fill-opacity=".016" fill-rule="evenodd" d="M0 128.004v128.004l128.25-.254 128.25-.254.254-127.75L257.008 0H0zm.485.496c0 70.4.119 99.053.265 63.672s.146-92.98 0-128S.485 58.1.485 128.5"/><path fill="#1976D2" fill-opacity=".307" fill-rule="evenodd" d="M110.882 1.069c-28.887 4.246-53.485 17.2-74.569 39.272C12.547 65.222.573 94.584.564 128c-.004 16.753 2.309 29.504 8.061 44.439 13.452 34.925 42.435 63.4 77.375 76.02 44.015 15.898 93.331 5.574 128.737-26.949 20.179-18.536 35.567-47.772 39.276-74.619.637-4.615 1.57-9.172 2.073-10.127 1.152-2.189 1.2-19.763.048-17.947-.518.817-1.078-1.303-1.476-5.591-.901-9.692-4.81-24.406-9.198-34.62C227.706 37.28 191.304 8.494 148 1.535c-10.066-1.618-27.767-1.84-37.118-.466m-4.285 3.538C76.292 10.079 47.246 28.468 27.79 54.5 20.664 64.035 10.885 83.555 8.001 94c-8.215 29.761-5.874 58.717 6.921 85.593 12.025 25.257 31.434 45.859 55.388 58.789 29.14 15.729 64.738 18.912 95.893 8.575 22.654-7.516 41.502-20.349 56.69-38.596 17.103-20.546 26.517-42.881 29.342-69.611 2.159-20.433-2.077-43.379-11.725-63.503C233.289 60.185 226.41 50.41 215 39c-18.402-18.402-40.855-30.174-65.871-34.537-10.493-1.83-32.007-1.757-42.532.144M73.646 61.452c-2.529 2.344-2.647 2.907-2.66 12.75-.016 12.649-.478 14.484-4.113 16.364-3.471 1.795-3.722 4.004-.544 4.802 3.572.896 4.671 4.715 4.671 16.225 0 9.813.16 10.658 2.455 12.952C76.359 127.45 84 128.141 84 125.5c0-.933-.944-1.5-2.5-1.5-1.375 0-3.4-.9-4.5-2-1.759-1.759-2-3.333-2-13.045 0-10.216-.174-11.22-2.317-13.363l-2.317-2.317 2.317-2.693C74.788 88.135 75 86.926 75 77.378c0-5.78.455-11.361 1.012-12.401s2.582-2.185 4.5-2.545c4.897-.919 4.629-3.432-.366-3.432-2.705 0-4.643.731-6.5 2.452m102.021-1.785c-1.36 1.359-.595 2.333 1.833 2.333 1.375 0 3.4.9 4.5 2 1.756 1.756 2 3.333 2 12.944 0 10.002.2 11.177 2.317 13.638l2.317 2.693-2.317 2.317C184.179 97.73 184 98.748 184 108.763c0 11.803-.694 13.793-5.232 15.007-3.842 1.027-3.464 2.672.697 3.04 2.672.235 4.106-.29 6.021-2.205 2.378-2.378 2.514-3.104 2.514-13.425 0-9.523.263-11.245 2.073-13.545 1.139-1.449 2.714-2.635 3.5-2.635 2.484 0 1.543-2.889-1.446-4.434-3.635-1.88-4.097-3.715-4.113-16.361-.013-9.589-.183-10.464-2.469-12.75-2.364-2.365-8.238-3.428-9.878-1.788M95 64c-1.901 1.901-2 3.333-2 28.845 0 24.737.144 26.975 1.829 28.5 1.624 1.47 5.526 1.655 34.845 1.655 32.295 0 33.058-.046 34.921-2.105 1.772-1.958 1.905-3.945 1.905-28.395s-.133-26.437-1.905-28.395c-1.863-2.059-2.629-2.105-34.75-2.105-31.512 0-32.926.081-34.845 2m6 5.941c0 2.693 1.892 3.596 3.714 1.773 1.823-1.822.92-3.714-1.773-3.714-1.255 0-1.941.686-1.941 1.941m8 0c0 2.693 1.892 3.596 3.714 1.773 1.823-1.822.92-3.714-1.773-3.714-1.255 0-1.941.686-1.941 1.941m8 0c0 2.693 1.892 3.596 3.714 1.773 1.823-1.822.92-3.714-1.773-3.714-1.255 0-1.941.686-1.941 1.941M41.992 85.508l-8.463 8.507 9.189 9.19c9.076 9.076 9.215 9.166 11.236 7.337 1.125-1.019 2.046-2.333 2.046-2.92 0-.588-2.8-3.893-6.221-7.345L43.558 94l6.393-6.45 6.393-6.451-2.422-2.016c-1.332-1.109-2.657-2.031-2.944-2.05s-4.331 3.795-8.986 8.475m160.476-6.473c-1.812 2.002-1.739 2.137 4.567 8.5L213.442 94l-6.221 6.277c-3.421 3.452-6.221 6.757-6.221 7.345 0 .587.921 1.901 2.046 2.92 2.021 1.829 2.16 1.739 11.236-7.337l9.189-9.19-8.463-8.507c-4.655-4.68-8.967-8.508-9.581-8.508s-1.946.916-2.959 2.035M96 97.929c0 15.874.254 19.182 1.571 20.5 1.359 1.358 5.632 1.571 31.566 1.571 18.764 0 30.719-.388 31.929-1.035 1.81-.969 1.934-2.279 1.934-20.5V79H96zm7.19-9.179c.285 1.48 1.488 1.75 7.81 1.75s7.525-.27 7.81-1.75c.298-1.551-.59-1.75-7.81-1.75s-8.108.199-7.81 1.75M123 88.5c0 1.334 1.222 1.538 7.75 1.292 4.305-.162 7.75-.736 7.75-1.292s-3.445-1.13-7.75-1.292c-6.528-.246-7.75-.042-7.75 1.292m-19.812 9.25c.285 1.489 1.678 1.788 9.323 2.005 8.986.254 12.351-.55 11.058-2.643-.43-.696-4.432-1.112-10.701-1.112-8.999 0-9.981.178-9.68 1.75m24.506-1.111C125.923 98.41 129.263 99 141.059 99 151.895 99 154 98.756 154 97.5c0-1.255-2.093-1.5-12.833-1.5-7.059 0-13.121.288-13.473.639m-23.984 7.984c-.39.391-.71 1.332-.71 2.091 0 1.06 1.457 1.312 6.25 1.084 4.757-.227 6.25-.656 6.25-1.798 0-1.117-1.413-1.575-5.54-1.794-3.047-.161-5.859.026-6.25.417m16.54 1.627c.304.913 3.872 1.25 13.25 1.25s12.946-.337 13.25-1.25c.32-.959-2.761-1.25-13.25-1.25s-13.57.291-13.25 1.25M.36 128c0 5.225.169 7.363.375 4.75s.206-6.888 0-9.5S.36 122.775.36 128m49.797 9.75C49.081 139.813 35 177.61 35 178.435c0 .311 2.457.565 5.46.565h5.46l1.198-4 1.199-4h16.366l1.199 4 1.198 4h5.46c3.535 0 5.46-.417 5.46-1.182 0-.651-3.433-10.326-7.629-21.5L62.742 136h-5.836c-4.543 0-6.038.388-6.749 1.75M84 157.5V179h10v-43H84zm89.784-20.951c-.349.35-.684 9.819-.744 21.044L172.932 178h10.012l.278-13.75.278-13.75 5.855 10.25c7.668 13.422 8.298 13.447 15.645.618l5.5-9.603.279 13.117.279 13.118H221v-42h-11.519l-5.849 10.558c-3.216 5.808-6.137 10.286-6.49 9.953s-3.128-4.973-6.166-10.309l-5.524-9.702-5.516-.294c-3.033-.161-5.802-.007-6.152.343M111.5 146.666c-3.616.972-8.685 5.533-10.212 9.187-1.92 4.595-1.229 12.403 1.414 15.971 3.621 4.889 8.087 7.176 14.012 7.176 2.979 0 6.4-.505 7.602-1.122 2.516-1.293 7.684-5.938 7.684-6.907 0-.36-1.811-1.197-4.024-1.86-3.405-1.02-4.262-.968-5.572.342-3.234 3.234-11.404 1.068-11.404-3.024 0-1.152 2.133-1.429 11-1.429h11v-2.788c0-3.79-3.907-11.163-7.176-13.543-2.685-1.955-10.458-3.042-14.324-2.003m23.5.931c0 .328 2.235 3.768 4.966 7.645l4.966 7.049-5.466 7.757c-3.006 4.266-5.466 8.026-5.466 8.354 0 .329 2.434.598 5.408.598 5.322 0 5.454-.072 8.25-4.498 1.563-2.474 3.137-4.499 3.497-4.5s1.842 2.023 3.292 4.498c2.615 4.462 2.684 4.5 8.095 4.5 3.002 0 5.458-.379 5.458-.843s-2.25-4.047-5-7.963-5-7.443-5-7.838c0-.394 2.277-4.011 5.06-8.037l5.06-7.319h-5.876c-5.814 0-5.899.042-8.124 4-1.236 2.2-2.439 4-2.671 4-.233 0-1.56-1.8-2.949-4-2.446-3.874-2.698-4-8.013-4-3.018 0-5.487.269-5.487.597m-80.552 6.153c-1.054 3.162-2.069 6.313-2.256 7-.235.867 1.062 1.25 4.235 1.25 2.515 0 4.573-.363 4.573-.806 0-.966-4.086-13.194-4.409-13.194-.124 0-1.088 2.588-2.143 5.75m58.302 1.305c-.963.574-1.75 1.697-1.75 2.495 0 1.109 1.44 1.45 6.122 1.45h6.122l-1.486-2.25c-1.646-2.494-6.226-3.356-9.008-1.695M76 190c0 .654 18.167 1 52.5 1s52.5-.346 52.5-1-18.167-1-52.5-1-52.5.346-52.5 1m-35 2.5c0 1.253 2.056 1.5 12.5 1.5s12.5-.247 12.5-1.5-2.056-1.5-12.5-1.5-12.5.247-12.5 1.5m150 0c0 1.253 2.056 1.5 12.5 1.5s12.5-.247 12.5-1.5-2.056-1.5-12.5-1.5-12.5.247-12.5 1.5m-122.25 8.58c-2.501 1.457-2.16 3.776.75 5.102 1.375.626 2.5 1.517 2.5 1.979 0 1.325-2.784.977-3.28-.411-.245-.687-.788-.932-1.207-.543-.418.389-.494 1.401-.168 2.25.755 1.967 5.028 2.003 6.644.056 1.489-1.793.646-4.513-1.399-4.513-.809 0-1.794-.521-2.187-1.158-.49-.793-.037-.98 1.44-.593 2.841.743 3.753-.86 1.251-2.199-2.333-1.248-2.147-1.25-4.344.03m16.425.67c-1.066 2.081-.341 9.25.934 9.25.49 0 .891-1.35.891-3 0-2.333.444-3 2-3s2 .667 2 3 .444 3 2 3c1.1 0 2-.45 2-1s-.45-1-1-1c-1.446 0-1.232-3.756.241-4.247.886-.295.728-.927-.55-2.205-1.633-1.633-1.899-1.65-2.992-.189-.85 1.137-1.635 1.323-2.699.638q-1.499-.966-.25-.982c.688-.008 1.25-.465 1.25-1.015 0-1.677-2.871-1.114-3.825.75m48.414-1.006c-.324.324-.589 2.764-.589 5.423V211h3.5c1.925 0 3.5-.45 3.5-1s-1.125-1-2.5-1-2.5-.45-2.5-1 .9-1 2-1 2-.45 2-1-.9-1-2-1c-2.74 0-2.536-1.785.25-2.18 1.238-.176 2.25-.72 2.25-1.209 0-1.018-5.022-1.755-5.911-.867m25.175-.01c-.953 1.954-.159 9.616 1.04 10.024.98.334 1.246-.838 1.069-4.71-.216-4.732-1.192-7.192-2.109-5.314m-81.718 3.711c-.66.795-1.052 2.482-.873 3.75.422 2.973 4.657 3.759 6.521 1.209 1.679-2.296 1.644-2.923-.265-4.833-1.959-1.958-3.826-2.002-5.383-.126m18.968.246c.024 3.283 1.199 6.309 2.45 6.309.677 0 1.719-1.012 2.316-2.25l1.085-2.25.067 2.25c.038 1.255.702 2.25 1.501 2.25.788 0 1.723-1.012 2.079-2.25s.866-3.037 1.135-4c.722-2.589-1.392-2.128-2.221.484l-.709 2.233-.826-2.233c-1.052-2.844-2.294-2.839-3.671.016-.823 1.708-1.101 1.843-1.152.559-.093-2.308-2.071-3.385-2.054-1.118m12.48-.682c-.382.618-.428 1.39-.103 1.716.325.325.107 1.175-.486 1.889-1.59 1.916-.195 3.386 3.214 3.386 2.857 0 2.987-.181 2.691-3.75-.244-2.959-.765-3.815-2.466-4.057-1.185-.169-2.468.198-2.85.816M116 207c0 2.2.45 4 1 4s1-1.098 1-2.441.45-2.719 1-3.059c1.691-1.045 1.109-2.5-1-2.5-1.667 0-2 .667-2 4m6.17-3.126c-.756.479-1.188 2.092-1 3.735.279 2.448.775 2.891 3.23 2.891 2.287 0 2.978-.504 3.264-2.381.605-3.964-2.343-6.243-5.494-4.245m18.83 3.213c0 4.401 1.695 5.364 2.184 1.24.46-3.893 2.816-4.236 2.816-.41 0 1.696.477 3.083 1.06 3.083.614 0 .93-1.579.75-3.75-.286-3.461-.561-3.763-3.56-3.913-3.141-.158-3.25-.031-3.25 3.75m9.129-2.816c-1.282 1.282-1.492 4.032-.392 5.133.406.405.743 1.486.75 2.4.007.915.822 1.82 1.811 2.012 2.97.577 4.702-1.739 4.702-6.286 0-3.967-.176-4.231-2.871-4.307-1.578-.045-3.378.426-4 1.048M162 207.17c0 4.569 2.287 4.977 2.816.503.433-3.653 2.184-3.391 2.184.327 0 1.65.477 3 1.06 3 .614 0 .93-1.579.75-3.75-.286-3.461-.561-3.763-3.56-3.913-3.152-.158-3.25-.042-3.25 3.833m9-2.17c-.76 1.421-.76 2.579 0 4 1.274 2.38 6 2.774 6 .5 0-.825.402-1.5.893-1.5s1.152.675 1.469 1.5c.316.825 1.666 1.5 2.998 1.5 2.835 0 4.492-4.269 2.561-6.596-1.552-1.87-4.609-1.784-5.696.159-.794 1.418-.996 1.418-2.173 0-1.799-2.168-4.773-1.954-6.052.437m16 2c0 2.2.45 4 1 4s1-1.139 1-2.531.672-2.79 1.494-3.105c1.97-.756.913-2.364-1.553-2.364-1.598 0-1.941.707-1.941 4m-109 0c0 1.111.667 2 1.5 2s1.5-.889 1.5-2-.667-2-1.5-2-1.5.889-1.5 2m74 0c0 1.289.506 1.998 1.25 1.75.688-.229 1.25-1.017 1.25-1.75s-.562-1.521-1.25-1.75c-.744-.248-1.25.461-1.25 1.75m-28.187 1.683c.721.289 1.584.253 1.916-.079s-.258-.568-1.312-.525c-1.165.048-1.402.285-.604.604m50 0c.721.289 1.584.253 1.916-.079s-.258-.568-1.312-.525c-1.165.048-1.402.285-.604.604m8 0c.721.289 1.584.253 1.916-.079s-.258-.568-1.312-.525c-1.165.048-1.402.285-.604.604M153 211c-.901.582-1.025.975-.309.985.655.008 1.469-.435 1.809-.985.767-1.242.421-1.242-1.5 0"/><path fill="#1976D2" fill-opacity=".609" fill-rule="evenodd" d="M95.635 64.073 93 66.145v26.239c0 25.024.094 26.34 2.039 28.427 2.017 2.165 2.394 2.189 34.5 2.189 31.128 0 32.543-.082 34.461-2 1.899-1.899 2-3.333 2-28.5s-.101-26.601-2-28.5c-1.916-1.916-3.333-2-33.865-2-30.723 0-31.96.074-34.5 2.073M97.2 66.2c-.66.66-1.2 2.91-1.2 5V75h67v-3.8c0-2.09-.54-4.34-1.2-5-1.716-1.716-62.884-1.716-64.6 0M41.999 85.501l-8.456 8.5 8.937 8.978 8.936 8.979 2.318-2.178 2.318-2.177-6.748-6.801-6.748-6.8 6.408-6.466c6.307-6.364 6.38-6.499 4.568-8.501C52.519 77.916 51.412 77 51.073 77s-4.423 3.825-9.074 8.501m161.469-6.466c-1.812 2.002-1.739 2.137 4.568 8.501l6.408 6.466-6.748 6.8-6.748 6.801 2.318 2.177 2.318 2.178 8.936-8.979 8.937-8.978-8.456-8.5C210.35 80.825 206.266 77 205.927 77s-1.446.916-2.459 2.035M96 97.8c0 14.067.347 20.147 1.2 21 .881.881 9.36 1.2 31.918 1.2 16.895 0 31.43-.273 32.3-.607 1.371-.526 1.582-3.327 1.582-21V78H96zm7-9.3c0 1.334 1.222 1.538 7.75 1.292 4.305-.162 7.75-.736 7.75-1.292s-3.445-1.13-7.75-1.292c-6.528-.246-7.75-.042-7.75 1.292m.7 8.133c-1.93 1.931.153 2.413 9.305 2.152 5.812-.166 10.005-.704 10.005-1.285 0-1.14-18.219-1.958-19.31-.867m-.467 9.567c.288.863 2.339 1.3 6.1 1.3 7.839 0 7.685-1.928-.183-2.3-4.864-.23-6.249.004-5.917 1m-52.697 31.504C46.227 148.557 36 176.188 36 176.977c0 .563 2.182 1.023 4.848 1.023 4.728 0 4.888-.099 6.42-4l1.571-4H64.92l1.198 4 1.199 4h5.341c2.938 0 5.34-.113 5.338-.25s-3.489-9.475-7.75-20.75L62.5 136.5l-5.625-.296c-4.651-.245-5.749.015-6.339 1.5M84 157v21h10v-42H84zm28.5-10.067c-7.504 1.809-11.929 7.585-11.929 15.572 0 6.727 2.729 11.349 8.452 14.316 5.907 3.063 13.522 2.526 18.547-1.307 4.328-3.301 4.333-4.901.022-6.224-2.76-.847-3.707-.746-4.985.532-2.444 2.444-8.498 2.03-10.736-.733-1.029-1.271-1.871-2.711-1.871-3.2s4.95-.889 11-.889h11v-3.766c0-9.791-9.452-16.723-19.5-14.301m23.114 1.317c.402.688 2.745 4.1 5.206 7.583l4.474 6.333-5.147 7.404c-2.831 4.072-5.147 7.634-5.147 7.917s2.267.513 5.038.513c4.896 0 5.116-.127 7.75-4.468 1.492-2.458 2.94-4.483 3.219-4.5s1.731 1.993 3.226 4.468c2.697 4.466 2.76 4.5 8.265 4.5h5.547l-5.57-7.95-5.571-7.949 5.048-6.94c2.776-3.817 5.048-7.215 5.048-7.551 0-.335-2.249-.61-4.998-.61-4.863 0-5.076.125-7.881 4.631l-2.883 4.632-2.714-4.632c-2.703-4.612-2.737-4.631-8.178-4.631-4.095 0-5.281.313-4.732 1.25m-81.873 6.461-2.515 6.789 4.998.306c2.748.168 5.151.153 5.338-.035.407-.407-3.857-12.4-4.713-13.255-.326-.327-1.725 2.461-3.108 6.195m60.574-.704c-1.914.771-4.315 3.791-4.315 5.427 0 .311 2.925.566 6.5.566 4.542 0 6.495-.377 6.485-1.25-.023-1.827-1.197-3.299-3.669-4.6-2.488-1.31-2.131-1.299-5.001-.143M41.5 192c-.399.646 3.823 1 11.941 1 7.706 0 12.559-.386 12.559-1 0-.611-4.647-1-11.941-1-6.882 0-12.203.424-12.559 1m150 0c-.4.646 3.843 1 12 1s12.4-.354 12-1c-.353-.572-5.491-1-12-1s-11.647.428-12 1M85.586 202.509c-.898 1.37-1.2 2.491-.672 2.491s1.141 1.463 1.363 3.25l.403 3.25.16-3.25c.088-1.787.665-3.25 1.282-3.25.811 0 .799-.39-.041-1.403-.891-1.074-.873-1.5.078-1.817.861-.287.907-.621.151-1.088-.6-.371-1.826.446-2.724 1.817m-17.573-.025c-1.021 1.231-.703 1.785 1.872 3.25 3.99 2.271 3.987 3.69-.007 2.892-2.737-.548-2.963-.434-1.837.923 1.845 2.223 5.391 1.427 5.778-1.297.236-1.661-.367-2.51-2.31-3.249-3.027-1.15-2.377-3.413.7-2.437q2.041.648 1.357-.459c-.976-1.58-4.105-1.368-5.553.377m65.182 3.266c.279 4.35.537 4.777 3.055 5.066 1.512.174 2.75-.163 2.75-.75 0-.586-.9-1.066-2-1.066-2.744 0-2.535-2.758.25-3.294l2.25-.434-2.25-.136c-1.238-.075-2.25-.78-2.25-1.566 0-.787 1.012-1.626 2.25-1.864 1.599-.308 1.293-.473-1.055-.57L132.89 201zm-42.385-2.542c-.656 1.942.542 7.078 1.745 7.478.638.212 1.013-1.308.949-3.851-.101-4.038-1.788-6.309-2.694-3.627m-13.06.872c-2.18 1.27-2.262 4.25-.166 5.99 3.117 2.587 7.024-2.428 4.376-5.618-1.409-1.698-1.864-1.738-4.21-.372m31.5-.418c-2.135.862-1.371 2.174 1 1.718l2.25-.432-2.29 1.197c-3.075 1.606-2.431 4.327 1.053 4.456 2.32.085 2.737-.303 2.737-2.55 0-1.458-.54-3.191-1.2-3.851-1.279-1.279-1.595-1.327-3.55-.538m8.5.095c-1.258.28-1.75 1.371-1.75 3.875 0 2.069.406 3.235 1 2.868.55-.34 1-1.679 1-2.976s.563-2.558 1.25-2.804c1.798-.642.578-1.425-1.5-.963m4.29.695c-2.568 3.094 1.478 8.539 4.182 5.628 1.055-1.135.978-1.269-.44-.771-.945.332-1.984.173-2.309-.353s.309-.956 1.409-.956c2.754 0 3.449-1.527 1.556-3.419-1.958-1.958-2.858-1.985-4.398-.129m20.71-.763c-1.922.503-2.498 5.731-.75 6.811.583.361 1-.656 1-2.441 0-2.052.494-3.059 1.5-3.059.924 0 1.5.938 1.5 2.441 0 1.343.45 2.719 1 3.059 1.435.887 1.253-4.847-.2-6.3-.66-.66-1.448-1.148-1.75-1.084s-1.337.322-2.3.573m8.413.185c-2.14 1.363-1.015 5.576 1.587 5.946 1.238.175 2.25.79 2.25 1.366 0 .578-1.121.833-2.5.569-2.754-.526-3.428.675-.918 1.638 2.117.812 2.054.828 3.847-.964 1.673-1.674 2.196-8.429.653-8.429-.505 0-1.518-.22-2.25-.489-.733-.27-1.934-.106-2.669.363m13.587-.116c-1.308.29-1.72 1.318-1.632 4.065.116 3.605.131 3.618.76.677.362-1.693 1.286-3 2.122-3s1.76 1.307 2.122 3c.632 2.958.643 2.949.76-.643.121-3.74-.953-4.805-4.132-4.099m7.45.442c-.66.66-1.2 2.205-1.2 3.433 0 2.647 3.607 4.21 5.351 2.319.891-.966.763-1.111-.569-.643-.945.332-1.984.173-2.309-.353s.336-.956 1.468-.956c2.485 0 2.862-3.478.477-4.393-2.014-.773-1.816-.809-3.218.593m8 0c-.66.66-1.2 2.205-1.2 3.433 0 2.647 3.607 4.21 5.351 2.319.891-.966.763-1.111-.569-.643-.945.332-1.984.173-2.309-.353s.336-.956 1.468-.956c2.485 0 2.862-3.478.477-4.393-2.014-.773-1.816-.809-3.218.593m8.55-.443c-1.258.28-1.75 1.371-1.75 3.875 0 2.069.406 3.235 1 2.868.55-.34 1-1.679 1-2.976s.563-2.558 1.25-2.804c1.798-.642.578-1.425-1.5-.963m-92.161 2.909c.98 4.152 2.065 4.849 3.468 2.228l1.241-2.32.843 2.277c.463 1.253 1.252 2.024 1.752 1.715 1.31-.81 3.171-6.566 2.122-6.566-.484 0-1.199 1.005-1.589 2.234l-.709 2.233-.826-2.233c-1.052-2.844-2.294-2.839-3.671.016-.823 1.708-1.101 1.843-1.152.559-.038-.93-.536-1.98-1.108-2.334-.681-.421-.809.336-.371 2.191m62.663.834c.011 2.2.216 2.982.455 1.738s.23-3.044-.02-4-.446.062-.435 2.262M78 206.941c0 1.068.399 2.188.887 2.489 1.218.753 3.438-2.095 2.64-3.386-1.095-1.771-3.527-1.153-3.527.897m45.813-1.258c.721.289 1.584.253 1.916-.079s-.258-.568-1.312-.525c-1.165.048-1.402.285-.604.604m27.633.404c-.369.598-.21 1.549.354 2.113 1.262 1.262 3.2.196 3.2-1.759 0-1.684-2.574-1.94-3.554-.354m22.367-.404c.721.289 1.584.253 1.916-.079s-.258-.568-1.312-.525c-1.165.048-1.402.285-.604.604m8 0c.721.289 1.584.253 1.916-.079s-.258-.568-1.312-.525c-1.165.048-1.402.285-.604.604m-71.699 2.246c-.859.532-.962 1.047-.29 1.462.571.353 1.339.154 1.707-.441.918-1.486.188-2.012-1.417-1.021"/><path fill="#1976D2" fill-opacity=".971" fill-rule="evenodd" d="M94.872 64.654c-2.006 2.418-2.006 53.274 0 55.692 1.227 1.478 4.919 1.654 34.694 1.654 33.299 0 33.322-.001 34.877-2.223C165.752 117.91 166 113.558 166 92.5s-.248-25.41-1.557-27.277C162.888 63.001 162.865 63 129.566 63c-29.775 0-33.467.176-34.694 1.654m1.795 1.013C96.3 66.033 96 68.514 96 71.18v4.847l33.75-.264 33.75-.263.31-3.204c.17-1.762-.183-4.124-.785-5.25-1.069-1.997-1.876-2.046-33.394-2.046-17.763 0-32.598.3-32.964.667M42.99 85.51l-8.461 8.505 8.69 8.689c8.632 8.632 8.702 8.677 10.771 6.805l2.083-1.885-6.759-6.811-6.758-6.811L49 87.5c6.44-6.497 6.442-6.502 4.447-8.498s-2.002-1.991-10.457 6.508m160.52-6.521c-1.868 2.064-1.83 2.134 4.525 8.546L214.442 94l-6.457 6.515c-5.305 5.353-6.268 6.813-5.399 8.19.581.922 1.482 1.818 2.002 1.991s4.756-3.516 9.414-8.198l8.469-8.513-8.539-8.539-8.539-8.538zM96.23 98.737l.27 20.763 32.708.264c31.764.256 32.738.206 33.772-1.726.674-1.26.965-8.874.792-20.764L163.5 78.5l-33.77-.263-33.771-.264zm7.464-11.098c-1.561 1.562.932 2.361 7.365 2.361 5.503 0 6.941-.311 6.941-1.5 0-1.187-1.426-1.5-6.833-1.5-3.759 0-7.121.288-7.473.639m.035 8.966c-1.711 1.71 1.122 2.395 9.913 2.395 7.174 0 9.422-.309 9.11-1.25-.446-1.348-17.777-2.392-19.023-1.145M103.5 106c-.386.625 1.656 1 5.441 1 3.373 0 6.059-.443 6.059-1 0-.55-2.448-1-5.441-1s-5.719.45-6.059 1m-18.499 51.25L85 178h9.041l-.271-20.728-.27-20.727-4.249-.023-4.25-.022zm-34.488-18.5C48.494 143.791 36 177.218 36 177.578c0 .232 2.179.422 4.842.422 4.79 0 4.854-.043 6.051-4.038l1.21-4.038 8.612.288 8.612.288 1.171 3.5c1.11 3.318 1.433 3.515 6.23 3.799l5.058.298-7.643-20.535-7.643-20.535-5.643-.013c-4.449-.011-5.791.356-6.344 1.736m3.126 15.246c-1.452 3.915-2.639 7.318-2.639 7.561s2.475.443 5.5.443 5.5-.291 5.5-.647c0-1.136-4.296-12.82-5.023-13.664-.385-.447-1.887 2.392-3.338 6.307m55.381-5.244c-7.322 3.678-10.278 13.688-6.434 21.788 4.075 8.588 18.316 10.76 25.489 3.889 3.273-3.137 3.084-4.016-1.062-4.926-1.974-.434-3.714-.125-5.211.923-3.053 2.139-6.02 1.977-9.167-.499-5.153-4.053-3.67-4.927 8.365-4.927h11l-.002-3.25c-.005-11.194-12.501-18.262-22.978-12.998m26.988-1.002c.005.412 2.183 3.856 4.841 7.652l4.831 6.903-5.406 7.847-5.405 7.848h4.97c4.834 0 5.044-.124 7.608-4.5 1.451-2.475 3.049-4.5 3.553-4.5s2.102 2.025 3.553 4.5c2.566 4.379 2.771 4.5 7.625 4.5 2.744 0 4.839-.338 4.655-.75-.183-.412-2.531-4.004-5.217-7.982l-4.885-7.231 3.885-5.549c2.136-3.051 4.501-6.435 5.256-7.518 1.31-1.881 1.144-1.97-3.655-1.97-4.901 0-5.093.113-7.664 4.5-1.451 2.475-2.956 4.486-3.345 4.468s-1.928-2.042-3.42-4.5c-2.57-4.236-2.947-4.468-7.25-4.468-2.496 0-4.534.338-4.53.75m-23.819 7.289c-3.983 3.711-2.897 4.961 4.311 4.961 5.77 0 6.5-.218 6.5-1.943 0-2.293-3.571-5.057-6.534-5.057-1.149 0-3.074.918-4.277 2.039M47.75 192.74c3.438.196 9.063.196 12.5 0 3.438-.195.625-.355-6.25-.355s-9.687.16-6.25.355m149.542.002c3.735.193 9.585.192 13-.003 3.414-.194.358-.352-6.792-.35-7.15.001-9.944.161-6.208.353m-128.625 8.925c-1.412 1.412-.562 3.423 1.833 4.333 1.375.523 2.5 1.385 2.5 1.916 0 1.695-2.038 2.297-3.544 1.048-.859-.713-1.456-.792-1.456-.193 0 1.367 2.645 2.302 4.5 1.591 2.458-.943 1.79-4.251-1-4.951-3.375-.847-3.403-3.817-.03-3.172 1.358.26 2.232.087 1.941-.383-.627-1.014-3.793-1.14-4.744-.189m17.15 1.083c-.229.963-.11 3.1.265 4.75.636 2.802.695 2.835.883.5.111-1.375.314-3.512.451-4.75.294-2.645-.993-3.048-1.599-.5m48.319 3c.075 2.613.328 3.765.562 2.561.245-1.263 1.35-2.368 2.613-2.613l2.189-.426-2.25-.136c-1.238-.075-2.25-.78-2.25-1.566 0-.787 1.012-1.626 2.25-1.864 1.929-.372 1.858-.453-.5-.57-2.651-.131-2.745.035-2.614 4.614m-43.251-2.539c-.263 2.945.363 5.364 1.693 6.543.913.808 1.061.826.418.05-1.242-1.501-1.3-4.525-.095-4.971.496-.183.271-.913-.5-1.622-1.144-1.053-1.422-1.053-1.516 0m-14.417 2.89c-.386 1.216-.142 2.584.58 3.25.971.895 1.1.735.582-.728-.366-1.032-.152-2.494.475-3.25.755-.91.784-1.373.085-1.373-.58 0-1.355.945-1.722 2.101m4.425-1.279c.848.592 1.164 1.853.806 3.22-.406 1.552-.266 1.925.451 1.208 1.407-1.407.697-4.49-1.15-4.993-1.246-.34-1.264-.245-.107.565m19.69.043c-.385.624-.255 1.135.291 1.135.545 0 1.279.907 1.631 2.015.64 2.018 2.495 1.84 2.495-.241 0-.609-.314-.793-.698-.409s-1.22-.277-1.858-1.469c-.757-1.415-1.402-1.773-1.861-1.031m15.533 2.385c.074 2.068.286 2.522.584 1.25.258-1.1 1.192-2.562 2.075-3.25 1.425-1.109 1.359-1.25-.584-1.25-1.829 0-2.172.537-2.075 3.25m9.448-1.957c.376.986.935 1.541 1.243 1.233s.001-1.114-.683-1.793c-.988-.98-1.102-.865-.56.56M142 207c0 1.65.174 3 .387 3 .212 0 .584-1.35.826-3s.069-3-.386-3-.827 1.35-.827 3m3.642-1.913c.629.777 1.384 2.313 1.68 3.413.337 1.257.47.913.357-.923-.098-1.607-.854-3.143-1.679-3.413-1.179-.384-1.255-.187-.358.923m4.72.413c-.908 2.366.379 4.5 2.714 4.5 1.521 0 1.966.448 1.542 1.552-.341.89-.173 1.291.393.941 1.212-.749 1.328-8.493.128-8.493-.474 0-.647 1.125-.384 2.5.388 2.03.08 2.5-1.638 2.5-2.348 0-3.039-3.461-.867-4.338.979-.395.972-.521-.031-.583-.705-.043-1.541.596-1.857 1.421m8.87 1.5c0 1.925.206 2.713.457 1.75.252-.963.252-2.537 0-3.5-.251-.963-.457-.175-.457 1.75m3.918.184c.137 3.025.186 3.075.566.566.552-3.64 3.965-3.817 4.589-.238.402 2.301.428 2.28.317-.25-.099-2.233-.649-2.823-2.872-3.078-2.535-.292-2.738-.058-2.6 3m8.517-2.517c-2.475 2.474 1.034 7.197 4.031 5.425 1.589-.941 1.512-1.039-.657-.829-2.794.269-4.175-2.93-1.889-4.378.741-.47.86-.861.265-.87-.596-.008-1.384.285-1.75.652m3.897.626c.376.986.935 1.541 1.243 1.233s.001-1.114-.683-1.793c-.988-.98-1.102-.865-.56.56m4.103-.626c-2.475 2.474 1.034 7.197 4.031 5.425 1.589-.941 1.512-1.039-.657-.829-2.794.269-4.175-2.93-1.889-4.378.741-.47.86-.861.265-.87-.596-.008-1.384.285-1.75.652m3.897.626c.376.986.935 1.541 1.243 1.233s.001-1.114-.683-1.793c-.988-.98-1.102-.865-.56.56m4.436-.324c0 .532.675.709 1.5.393.825-.317 1.5-.753 1.5-.969s-.675-.393-1.5-.393-1.5.436-1.5.969m-90.985 1.742c.029 1.497 1.736 3.5 2.255 2.646.286-.471-.108-1.437-.875-2.146-.767-.71-1.388-.935-1.38-.5M112.158 208c0 1.375.227 1.938.504 1.25.278-.687.278-1.812 0-2.5-.277-.687-.504-.125-.504 1.25m8.842-.559c0 .793.408 1.693.907 2.001.498.309.671-.34.383-1.441-.611-2.335-1.29-2.63-1.29-.56m-13 1.059c0 .825.177 1.5.393 1.5s.652-.675.969-1.5.139-1.5-.393-1.5c-.533 0-.969.675-.969 1.5"/></svg>