<svg xmlns="http://www.w3.org/2000/svg" width="256" height="256"><path fill="#1976D2" fill-opacity=".016" fill-rule="evenodd" d="M0 128.004v128.004l128.25-.254 128.25-.254.254-127.75L257.008 0H0v128.004m.485.496c0 70.4.119 99.053.265 63.672.146-35.38.146-92.98 0-128C.604 29.153.485 58.1.485 128.5"/><path fill="#1976D2" fill-opacity=".303" fill-rule="evenodd" d="M67.133 82.75c-1.69 1.417-2.14 3.083-2.36 8.75l-.273 7-30.34.5-30.339.5-1.911 2.361C.145 104.042 0 106.099 0 128.936 0 160-1.192 158 17.314 158c10.349 0 12.686.264 12.686 1.434 0 .82-1.176 1.568-2.75 1.75-2.546.292-2.75.65-2.75 4.816v4.5h35V166c0-4.166-.204-4.524-2.75-4.816-1.624-.187-2.75-.925-2.75-1.803 0-1.164 1.137-1.42 5.25-1.183l5.25.302.305 4.763c.485 7.563 1.351 7.831 24.264 7.509l19.353-.272 2.289-3.398c1.259-1.869 2.289-2.953 2.289-2.41 0 1.583 4.756 3.308 9.124 3.308 3.121 0 4.689-.659 6.953-2.923 5.438-5.438 3.197-11.516-5.556-15.069-5.905-2.396-7.235-4.152-4.907-6.479 2.189-2.189 3.951-1.897 6.258 1.036 1.696 2.155 2.346 2.389 4.073 1.465 2.759-1.477 2.593-2.645-.868-6.107-3.954-3.954-9.652-4.075-13.441-.287L112 142.273v-28.002c0-26.814-.088-28.113-2.073-30.636L107.855 81H88.538c-16.934 0-19.574.216-21.405 1.75m9.115 9.5c.293.882 3.846 1.333 12.084 1.532 9.935.24 11.668.054 11.668-1.25C100 91.241 98.102 91 87.917 91c-9.222 0-11.985.296-11.669 1.25M5.45 105.271c-.269.699-.367 11.836-.219 24.75L5.5 153.5h73l.269-23.931c.147-13.163-.078-24.278-.5-24.701-.423-.423-.769 10.121-.769 23.431V152.5h-71v-24.25c0-13.338-.127-24.251-.281-24.25-.155 0-.501.572-.769 1.271m152.205 33.558c-.91 1.006-1.655 2.806-1.655 4 0 1.263-.627 2.171-1.5 2.171-.833 0-1.5.889-1.5 2s.667 2 1.5 2c1.228 0 1.5 1.722 1.5 9.5 0 9.467.009 9.5 2.5 9.5s2.5-.033 2.5-9.5c0-8.833.14-9.5 2-9.5 1.333 0 2-.667 2-2 0-1.357-.667-2-2.073-2-2.865 0-2.123-3.398.833-3.82 1.436-.204 2.24-1.012 2.24-2.25 0-2.616-6.003-2.689-8.345-.101m28.115.137c-3.827 3.011-5.037 7.066-4.614 15.46.336 6.639.706 7.82 3.298 10.526 2.387 2.491 3.722 3.048 7.31 3.048 3.519 0 4.97-.58 7.313-2.923 3.769-3.769 3.923-7.077.329-7.077-1.757 0-2.763.648-3.119 2.011-.743 2.842-4.885 3.663-7.327 1.453-2.908-2.632-2.839-14.585.101-17.525 2.758-2.758 5.134-2.131 6.869 1.812 1.702 3.865 6.07 4.728 6.07 1.199 0-2.891-2.666-7.701-4.945-8.92-3.083-1.651-8.576-1.195-11.285.936m-16.257 2.977c-.37 1.681-1.311 3.057-2.092 3.057-.782 0-1.421.9-1.421 2 0 1.111.667 2 1.5 2 1.196 0 1.5 1.475 1.5 7.277 0 8.968 1.541 11.723 6.557 11.723 2.776 0 3.443-.387 3.443-2 0-1.333-.667-2-2-2-1.822 0-2-.667-2-7.5s.178-7.5 2-7.5c1.333 0 2-.667 2-2 0-1.31-.667-2-1.934-2-1.366 0-2.026-.807-2.25-2.75-.48-4.173-4.404-4.401-5.303-.307m-31.071 3.822c-5.898 4.096-5.826 19.339.103 21.614 3.139 1.204 8.26.599 10.538-1.245 1.881-1.524 2.382-3.08 2.725-8.463.399-6.267.269-6.748-2.617-9.634-3.005-3.005-8.132-4.089-10.749-2.272m69.857.738c-4.801 3.363-5.429 14.6-1.075 19.236 3.153 3.356 9.913 3.174 12.677-.34 4.195-5.334 3.571-15.554-1.153-18.863-2.792-1.955-7.682-1.971-10.449-.033M226 156.5V168h2.5c2.365 0 2.505-.31 2.6-5.75.133-7.698 1.03-10.556 3.683-11.737 1.345-.599 2.217-1.877 2.217-3.25 0-2.594-2.137-2.983-4.331-.789-1.3 1.299-1.542 1.299-2.04 0-.312-.811-1.48-1.474-2.598-1.474-1.924 0-2.031.607-2.031 11.5m12.642-7.75c-.341 2.063-.625 9.037-.631 15.5L238 176h3c2.868 0 3-.189 3-4.299v-4.299l3.561.415c2.711.317 4.145-.131 6-1.875 2.144-2.014 2.439-3.155 2.439-9.442 0-6.182-.314-7.446-2.314-9.326-2.54-2.385-6.608-2.852-8.486-.974-.933.933-1.2.933-1.2 0 0-.66-1.066-1.2-2.369-1.2-1.961 0-2.476.646-2.989 3.75M112 153.309c0 3.97.297 4.691 1.933 4.691 1.063 0 2.218.899 2.566 1.998.75 2.362 5.14 3.72 7.406 2.29 3.173-2.001 1.814-4.64-3.767-7.309-2.949-1.41-5.986-3.419-6.75-4.463-1.257-1.719-1.388-1.454-1.388 2.793m29.07-2.893c-.693.835-1.051 3.809-.872 7.25.283 5.476.456 5.834 2.802 5.834s2.519-.358 2.802-5.834c.28-5.39-.78-8.666-2.802-8.666-.415 0-1.284.637-1.93 1.416m69.912.618c-.599 1.119-.952 4.11-.785 6.648.579 8.817 6.803 7.958 6.803-.939 0-6.845-3.588-10.249-6.018-5.709m34.218-.834c-1.815 1.815-1.533 11.279.384 12.87 2.645 2.195 4.872-.105 5.219-5.388.46-6.991-2.347-10.738-5.603-7.482M87.5 158c.34.55.816 1 1.059 1s.441-.45.441-1-.477-1-1.059-1-.781.45-.441 1"/><path fill="#1976D2" fill-opacity=".651" fill-rule="evenodd" d="M66.557 84.223C65.552 85.657 65 88.655 65 92.68v6.236l-30.09.292-30.089.292-1.911 2.361C1.149 104.038 1 106.086 1 128.177c0 23.497.418 27.067 3.4 29.058.605.404 6.795.741 13.756.75 12.038.014 12.632.11 12.149 1.958-.311 1.188-1.538 2.063-3.157 2.25-2.301.267-2.648.765-2.648 3.807v3.5h35V166c0-2.869-.406-3.558-2.252-3.82-1.239-.176-2.717-1.188-3.285-2.25-.968-1.808-.651-1.93 5.002-1.93H65v3.777c0 2.078.701 4.778 1.557 6 1.52 2.17 2.027 2.223 21.428 2.223 21.662 0 23.015-.336 23.015-5.717v-2.575l2.415 2.606c6.344 6.845 17.585 3.221 17.585-5.67 0-3.432-2.202-5.758-8.123-8.581-3.214-1.532-5.517-3.319-5.725-4.443-.698-3.763 5.75-5.026 8.151-1.598.89 1.271 2.026 1.789 3.057 1.393 4.323-1.659-1.322-7.415-7.272-7.415-4.646 0-7.749 2.181-8.597 6.042-.945 4.301 1.531 7.551 7.899 10.367 5.99 2.649 7.483 4.969 4.979 7.736-2.404 2.656-5.824 2.29-8.53-.913-1.319-1.561-3.102-2.62-4.089-2.427-1.641.32-1.75-1.957-1.75-36.66 0-32.305-.199-37.202-1.571-38.574C108.105 82.248 104.717 82 87.985 82c-19.401 0-19.908.053-21.428 2.223M76 92c0 1.893.667 2 12.5 2s12.5-.107 12.5-2-.667-2-12.5-2-12.5.107-12.5 2M4.607 104.582c-.334.87-.607 11.863-.607 24.428 0 19.437.235 23.082 1.571 24.419C6.94 154.797 11.645 155 42 155c30.355 0 35.06-.203 36.429-1.571C79.765 152.092 80 148.447 80 129.01c0-12.565-.273-23.558-.607-24.428C78.855 103.179 74.622 103 42 103s-36.855.179-37.393 1.582M7 128.5V152h70v-47H7v23.5m3 0V149h64v-41H10v20.5m148.2 10.7c-.66.66-1.2 2.249-1.2 3.531 0 1.283-.675 2.591-1.5 2.907-.825.317-1.5 1.203-1.5 1.969s.675 1.393 1.5 1.393c1.228 0 1.5 1.722 1.5 9.5 0 8.833.14 9.5 2 9.5 1.858 0 2-.667 2-9.383 0-8.543.179-9.431 2-9.907 1.1-.287 2-1.015 2-1.616 0-.602-.9-1.094-2-1.094-1.467 0-2-.667-2-2.5s.533-2.5 2-2.5c1.111 0 2-.667 2-1.5 0-1.837-5.041-2.059-6.8-.3m27.324 1.185c-4.483 4.483-5.55 15.074-2.248 22.32 1.288 2.828 5.527 5.295 9.098 5.295 4.81 0 11.571-8.04 7.934-9.435-2.336-.897-3.308-.667-3.308.78 0 1.749-3.23 4.655-5.174 4.655-4.021 0-6.81-7.942-5.41-15.405 1.359-7.243 7.595-9.206 10.112-3.183 1.115 2.669 1.867 3.298 3.449 2.884 2.408-.63 2.39-.483.608-4.748-1.683-4.027-4.168-5.548-9.065-5.548-2.472 0-4.363.752-5.996 2.385m-15.708 2.365c-.178 1.547-.863 2.641-1.566 2.5-.687-.137-1.25.65-1.25 1.75 0 1.111.667 2 1.5 2 1.207 0 1.5 1.548 1.5 7.929 0 8.926 1.176 11.071 6.071 11.071 3.508 0 4.083-2.697.679-3.18-2.082-.296-2.272-.898-2.542-8.07-.273-7.232-.156-7.75 1.75-7.75 2.63 0 2.664-2.604.042-3.29-1.351-.353-2-1.364-2-3.116 0-3.776-3.747-3.636-4.184.156M228 145.747c-1.247.249-1.447 2.148-1.188 11.276.285 10.002.481 10.977 2.21 10.977 1.686 0 1.929-.918 2.188-8.24.277-7.88.41-8.297 3.04-9.554 1.512-.723 2.75-1.966 2.75-2.761 0-2.276-3.797-1.686-5.173.805l-1.244 2.25-.542-2.526c-.332-1.549-1.121-2.411-2.041-2.227m11.598-.011c-.329.328-.598 7.272-.598 15.431 0 14.166.09 14.833 2 14.833 1.733 0 2-.667 2-5 0-5.4.116-5.543 3.159-3.915 3.362 1.8 6.805.246 8.513-3.842 1.921-4.599 1.309-12.501-1.181-15.253-2.191-2.421-6.187-2.575-8.662-.335-1.605 1.452-1.829 1.465-1.829.107 0-1.629-2.381-3.047-3.402-2.026m-102.006 1.573c-2.278 1.666-3.596 8.737-2.52 13.512 2.163 9.595 13.381 9.636 15.96.059 2.176-8.081-1.486-14.88-8.015-14.88-1.999 0-4.44.589-5.425 1.309m69.863 1.146c-2.024 2.024-2.455 3.44-2.455 8.076 0 4.881.386 6.008 2.923 8.546 3.144 3.143 5.523 3.588 9.501 1.776 5.096-2.322 6.164-15.339 1.564-19.064-3.229-2.615-8.561-2.307-11.533.666M140.2 150.2c-1.471 1.471-1.583 10.215-.165 12.866 1.495 2.794 4.821 2.443 5.99-.631 1.274-3.352 1.244-9.063-.06-11.501-1.167-2.18-3.963-2.536-5.765-.734m69.891 2.55c-1.927 7.325 1.761 14.827 5.467 11.121 2.067-2.068 2.905-8.611 1.552-12.121-.763-1.978-1.758-2.75-3.547-2.75-2.031 0-2.667.687-3.472 3.75m34.165-2.067c-1.431 3.548-.838 11.163 1.013 13.014 3.773 3.774 7.919-3.318 6.143-10.507-.744-3.009-1.42-3.748-3.668-4.007-1.925-.221-2.976.231-3.488 1.5m-157.81 6.404c-1.03 1.668 1.287 3.58 2.667 2.2C90.267 158.133 89.545 156 88 156c-.485 0-1.184.489-1.554 1.087m-44.696 1.655c-8.908.461-8.709 2.258.25 2.258 5.556 0 7-.31 7-1.5 0-.825-.112-1.412-.25-1.304-.138.108-3.288.353-7 .546M28 166c0 .619 5.333 1 14 1s14-.381 14-1-5.333-1-14-1-14 .381-14 1"/><path fill="#1976D2" fill-opacity=".967" fill-rule="evenodd" d="M67.706 83.773c-1.07 1.182-1.704 4.096-1.905 8.75L65.5 99.5l-30.788.5c-25.901.421-30.937.738-31.734 2-.532.842-.954 12.772-.963 27.193C1.997 160.451.569 158 18.796 158c11.222 0 12.32.16 12.019 1.75-.2 1.055-1.42 1.876-3.074 2.066-2.47.286-2.741.706-2.741 4.25V170h34v-3.934c0-3.544-.271-3.964-2.741-4.25-1.654-.19-2.874-1.011-3.074-2.066-.289-1.523.522-1.75 6.242-1.75H66v4.345c0 7.393.763 7.655 22.329 7.655 17.338 0 18.814-.143 20.671-2 1.933-1.933 2-3.333 2-42s-.067-40.067-2-42c-1.858-1.858-3.333-2-20.845-2-16.769 0-19.022.195-20.449 1.773m1.961 1.894c-.367.366-.667 3.516-.667 7V99h4.365c2.902 0 5.249.695 7 2.073L83 103.145v25.428c0 24.094-.105 25.532-2 27.427-1.473 1.473-3.333 2-7.057 2h-5.058l.308 4.25.307 4.25 17.869.274c12.332.188 18.297-.082 19.25-.873 1.888-1.567 2.061-77.821.181-79.701-1.295-1.295-35.875-1.792-37.133-.533m2.735 2.728c-.294.767-.393 3.129-.219 5.25L72.5 97.5h31l.302-5.25.303-5.25H88.521c-12.408 0-15.693.284-16.119 1.395m3.75 1.49c-.742.47-1.186 1.701-.988 2.735.327 1.705 1.548 1.906 13.118 2.16 10.749.236 12.851.037 13.35-1.263 1.366-3.559-1.404-4.518-13.004-4.502-6.121.009-11.735.4-12.476.87M5.105 103.374c-.803.967-1.061 8.737-.873 26.25L4.5 154.5h75l.268-24.876c.188-17.513-.07-25.283-.873-26.25C77.967 102.256 71.103 102 42 102s-35.967.256-36.895 1.374m2.126 25.376L7.5 151.5h69l.269-22.75.269-22.75H6.962l.269 22.75m1.999 0 .27 20.75h65l.27-20.75.271-20.75H8.959l.271 20.75m74.805 26.184c-2.394 4.474-.549 8.066 4.142 8.066 1.859 0 3.319-.827 4.415-2.5 1.517-2.316 1.517-2.684 0-5-2.052-3.131-7.008-3.459-8.557-.566m3.215.769c-2.066.766-1.498 4.297.691 4.297 1.068 0 2.246-.493 2.618-1.096.86-1.39-1.649-3.816-3.309-3.201m-53.574 3.699C32.81 161.659 33.901 162 42 162s9.19-.341 8.324-2.598C49.926 158.365 47.757 158 42 158s-7.926.365-8.324 1.402m-6.213 5.658c-1.493 2.416 1.688 2.989 15.116 2.719 11.583-.232 13.921-.531 13.921-1.779 0-1.25-2.365-1.546-14.174-1.777-9.617-.188-14.396.081-14.863.837"/></svg>